<?xml version="1.0" encoding="utf-8"?>
<!-- Generator: Adobe Illustrator 15.1.0, SVG Export Plug-In . SVG Version: 6.00 Build 0)  -->
<!DOCTYPE svg PUBLIC "-//W3C//DTD SVG 1.1//EN" "http://www.w3.org/Graphics/SVG/1.1/DTD/svg11.dtd">
<svg version="1.1"
	 id="svg2" sodipodi:docname="icon_arrow_left_black.svg" inkscape:version="0.48.2 r9819" xmlns:sodipodi="http://sodipodi.sourceforge.net/DTD/sodipodi-0.dtd" xmlns:inkscape="http://www.inkscape.org/namespaces/inkscape" xmlns:rdf="http://www.w3.org/1999/02/22-rdf-syntax-ns#" xmlns:svg="http://www.w3.org/2000/svg" xmlns:cc="http://creativecommons.org/ns#" xmlns:dc="http://purl.org/dc/elements/1.1/"
	 xmlns="http://www.w3.org/2000/svg" xmlns:xlink="http://www.w3.org/1999/xlink" x="0px" y="0px" width="100px" height="100px"
	 viewBox="0 0 100 100" enable-background="new 0 0 100 100" xml:space="preserve">
<sodipodi:namedview  pagecolor="#ffffff" borderopacity="1.0" id="base" inkscape:pageopacity="0.0" fit-margin-left="0" bordercolor="#666666" inkscape:document-units="px" inkscape:current-layer="layer1" inkscape:cx="62.499998" showgrid="false" inkscape:cy="62.500001" fit-margin-top="0" inkscape:pageshadow="2" inkscape:zoom="0.49497475" fit-margin-right="0" fit-margin-bottom="0" inkscape:window-width="924" inkscape:window-height="1015" inkscape:window-x="0" inkscape:window-y="0" inkscape:window-maximized="0">
	</sodipodi:namedview>
<g id="layer1" transform="translate(-273.90086,-483.04185)" inkscape:label="Layer 1" inkscape:groupmode="layer">
	<g id="g3158" transform="matrix(1,0,0,-1,273.90086,583.04185)" inkscape:label="icon_arrow_down_white">
		<g id="g3160">
			<g>
				<defs>
					<rect id="SVGID_1_" x="20" y="20" width="60" height="60"/>
				</defs>
				<clipPath id="SVGID_2_">
					<use xlink:href="#SVGID_1_"  overflow="visible"/>
				</clipPath>
				<g id="g3162" clip-path="url(#SVGID_2_)">
					<g id="g3168" transform="translate(50,2)">
						<path id="path3170" inkscape:connector-curvature="0" fill="#FFFFFF" d="M0,19.2c-15.906,0-28.8,12.894-28.8,28.8
							c0,15.906,12.894,28.8,28.8,28.8c15.906,0,28.8-12.894,28.8-28.8C28.8,32.094,15.906,19.2,0,19.2 M0,78
							c-16.568,0-30-13.432-30-30s13.432-30,30-30s30,13.432,30,30S16.568,78,0,78"/>
					</g>
					<g id="g3172" transform="translate(71.0897,56.9924)">
						<path id="path3174" inkscape:connector-curvature="0" fill="#FFFFFF" d="M-8.435-2.797l-0.849,0.849l-11.9-11.9L-33.072-1.962
							L-33.92-2.81l12.739-12.739L-8.435-2.797z"/>
					</g>
				</g>
			</g>
		</g>
	</g>
</g>
</svg>