<?xml version="1.0" standalone="no"?>
<!DOCTYPE svg PUBLIC "-//W3C//DTD SVG 20010904//EN"
 "http://www.w3.org/TR/2001/REC-SVG-20010904/DTD/svg10.dtd">
<svg version="1.0" xmlns="http://www.w3.org/2000/svg"
 width="501.000000pt" height="501.000000pt" viewBox="0 0 501.000000 501.000000"
 preserveAspectRatio="xMidYMid meet">
<metadata>
Created by potrace 1.11, written by Peter Selinger 2001-2013
</metadata>
<g transform="translate(0.000000,501.000000) scale(0.100000,-0.100000)"
fill="#000000" stroke="none">
<path d="M2190 3350 c-52 -16 -205 -87 -260 -121 -14 -9 -58 -35 -98 -59 l-73
-43 -382 -1 -382 -1 -61 -65 c-118 -126 -209 -223 -241 -256 -18 -18 -33 -35
-33 -38 0 -3 62 -5 138 -5 75 0 220 0 321 0 l184 -1 -104 -109 -104 -108 -265
-1 c-146 0 -294 -1 -330 -1 l-65 -1 -67 -88 c-37 -48 -76 -98 -87 -112 -83
-105 -231 -296 -231 -300 0 -3 149 -5 330 -5 182 0 330 -2 330 -4 0 -2 -13
-25 -29 -51 -84 -136 -126 -230 -103 -230 5 0 28 37 52 83 53 101 117 197 133
198 7 1 601 2 1320 3 l1308 1 -31 -28 c-18 -16 -30 -30 -28 -33 3 -2 36 11 74
29 l69 33 265 -1 c298 -2 278 -6 368 79 30 28 68 65 86 81 18 17 55 52 84 79
42 41 61 51 109 61 54 11 60 10 92 -12 59 -40 144 -26 189 32 23 29 60 42 142
51 30 3 58 9 62 12 24 24 96 278 92 327 -6 81 -44 138 -102 154 -33 10 -174 7
-191 -3 -5 -3 -27 -8 -48 -11 -22 -3 -80 -18 -129 -33 l-89 -29 -40 22 c-22
12 -143 75 -270 140 -126 65 -236 123 -244 129 -10 8 -220 11 -715 13 -386 0
-706 2 -712 2 -7 1 -12 22 -13 52 -3 139 -93 207 -221 169z m72 -190 c10 -12
16 -25 14 -29 -5 -7 -254 -7 -261 1 -4 3 97 39 150 53 32 8 80 -4 97 -25z
m-210 -399 c145 -1 186 -4 183 -13 -2 -7 -6 -29 -9 -48 -3 -19 -8 -48 -12 -65
-3 -16 -7 -43 -8 -60 l-3 -30 -496 -2 c-429 -1 -531 2 -488 19 4 2 50 41 100
88 51 47 104 92 119 100 22 12 66 15 227 13 110 -1 284 -2 387 -2z m863 0 l90
-1 -45 -41 c-25 -23 -61 -53 -80 -68 -19 -14 -37 -28 -40 -32 -3 -3 -26 -21
-52 -41 l-48 -36 -206 0 -206 -1 6 42 c3 23 8 62 11 87 9 69 10 74 17 85 5 9
103 10 553 6z m714 0 c15 -1 14 -5 -21 -131 l-24 -85 -307 -1 c-169 -1 -307 0
-307 2 0 1 46 40 103 86 56 45 104 85 107 88 3 3 17 15 33 25 25 18 43 20 215
18 103 -1 193 -2 201 -2z m631 2 c0 -2 -37 -21 -82 -44 -46 -23 -137 -72 -203
-110 -118 -67 -121 -68 -192 -68 -40 0 -73 4 -73 8 0 4 4 21 9 37 5 16 19 61
30 101 17 59 25 72 44 75 25 3 467 4 467 1z"/>
<path d="M905 1826 c-3 -9 -35 -165 -35 -170 0 -2 84 1 103 3 4 1 8 16 8 34 1
17 4 45 8 61 6 29 7 28 40 -35 l33 -64 55 0 c54 1 56 2 92 47 20 25 42 54 48
64 11 16 12 8 10 -45 l-2 -65 48 -1 c26 0 51 2 55 5 5 3 8 23 8 45 1 22 3 60
5 85 l4 45 -85 0 -84 0 -42 -52 c-46 -57 -47 -57 -82 13 l-21 41 -81 0 c-50 0
-83 -4 -85 -11z"/>
<path d="M1469 1811 c0 -14 -2 -35 -4 -46 -2 -11 -7 -40 -10 -65 l-6 -45 168
0 c160 1 168 2 171 21 3 19 -2 20 -101 19 -92 -1 -104 0 -100 15 4 14 18 16
85 16 53 -1 83 3 90 12 17 20 1 27 -65 28 -107 3 -107 3 -101 19 5 12 24 15
101 13 91 -1 112 5 113 33 0 3 -76 6 -170 6 l-170 0 -1 -26z"/>
<path d="M1884 1828 c-4 -6 -9 -34 -11 -62 -2 -28 -8 -63 -13 -78 -5 -16 -6
-28 -2 -29 4 -1 78 -2 165 -3 152 -1 157 0 157 19 0 19 -6 20 -82 20 -85 -1
-111 2 -104 14 2 3 7 33 11 66 l6 60 -60 2 c-35 1 -63 -2 -67 -9z"/>
<path d="M2240 1811 c0 -14 -3 -55 -6 -91 l-6 -65 66 0 c59 0 66 2 67 20 1 43
8 133 11 146 2 10 -13 14 -64 15 -67 1 -68 1 -68 -25z"/>
<path d="M2769 1836 c-2 -3 -10 -87 -12 -131 l-2 -50 161 2 c134 1 166 4 188
18 14 10 26 23 26 29 0 18 -21 36 -42 36 -26 0 -22 17 6 24 32 8 39 30 15 52
-18 16 -41 19 -180 20 -87 1 -159 1 -160 0z m226 -46 c12 -19 -39 -29 -107
-21 -5 1 -8 8 -8 16 0 11 13 15 54 15 30 0 58 -5 61 -10z m0 -80 c0 -10 -16
-15 -50 -17 -59 -4 -77 1 -69 21 11 28 119 24 119 -4z"/>
<path d="M3206 1822 c-3 -9 -8 -43 -11 -74 -6 -51 -5 -57 16 -68 35 -19 76
-24 194 -24 153 0 191 15 200 79 2 11 6 38 9 60 l6 40 -65 2 c-72 2 -66 8 -80
-78 -3 -20 -13 -43 -23 -51 -22 -19 -110 -17 -123 3 -7 11 -5 60 4 114 1 6
-24 11 -60 12 -50 1 -63 -2 -67 -15z"/>
<path d="M3733 1832 c-13 -4 -32 -15 -44 -25 -28 -24 -16 -37 64 -69 33 -13
57 -27 55 -33 -1 -6 -35 -9 -75 -8 -66 1 -73 0 -73 -18 0 -11 7 -19 18 -20
169 -11 220 -6 258 24 23 18 24 21 10 35 -9 9 -40 25 -71 36 -30 12 -54 26
-52 31 1 6 30 10 65 10 51 0 62 3 62 16 0 9 -7 20 -16 23 -20 8 -172 6 -201
-2z"/>
</g>
</svg>
