<?xml version="1.0" encoding="utf-8"?>
<!-- Generator: Adobe Illustrator 19.2.1, SVG Export Plug-In . SVG Version: 6.00 Build 0)  -->
<svg version="1.1" id="Layer_1" xmlns="http://www.w3.org/2000/svg" xmlns:xlink="http://www.w3.org/1999/xlink" x="0px" y="0px"
	 viewBox="0 0 605.8 623.5" style="enable-background:new 0 0 605.8 623.5;" xml:space="preserve">
<style type="text/css">
	.st0{fill:#EA7D24;}
	.st1{fill:#FFFFFF;}
</style>
<rect class="st0" width="605.8" height="623.5"/>
<g>
	<path class="st1" d="M121.5,447.5v26.2h75.1v-26.2H121.5z M409.2,405.5v26.2h75.1v-26.2H409.2z M121.5,363.5v26.2h75.1v-26.2H121.5
		z M289.1,321.5h-70.4l10.1,26.2h70.6L289.1,321.5z M121.5,279.5v26.2h75.1v-26.2H121.5z M256,237.5H121.5v26.2h144.8L256,237.5z
		 M223,153.5H121.5v26.2h111.8L223,153.5z M239.6,195.5H121.5v26.2h128.3L239.6,195.5z M272.6,279.5h-70l10.1,26.2h70.2L272.6,279.5
		z M121.5,321.5v26.2h75.1v-26.2H121.5z M234.7,363.5l10.1,26.2H361l10.1-26.2H234.7z M409.2,321.5v26.2h75.1v-26.2H409.2z
		 M332.9,279.5l-10.4,26.2h70.6l10-26.2H332.9z M349.5,237.5l-10.4,26.2h145.1v-26.2H349.5z M382.7,153.5l-10.4,26.2h111.9v-26.2
		H382.7z M366.1,195.5l-3.4,8.5v0.1l-7,17.7h128.5v-26.2H366.1z M409.2,279.5v26.2h75.1v-26.2H409.2z M316.3,321.5L306,347.7h71
		l10.1-26.2H316.3z M409.2,363.5v26.2h75.1v-26.2H409.2z M250.9,405.5l10,26.2h84l9.3-24.5l0.7-1.7H250.9z M121.5,405.5v26.2h75.1
		v-26.2H121.5z M409.2,447.5v26.2h75.1v-26.2H409.2z"/>
</g>
<polygon class="st1" points="233.3,179.6 121.5,179.6 121.5,153.5 223.1,153.5 "/>
<polygon class="st1" points="484.3,153.5 484.3,179.6 372.4,179.6 382.7,153.5 "/>
<polygon class="st1" points="249.8,221.6 121.5,221.6 121.5,195.5 239.6,195.5 "/>
<polygon class="st1" points="484.3,195.5 484.3,221.6 355.8,221.6 366.1,195.5 "/>
<polygon class="st1" points="266.3,263.6 121.5,263.6 121.5,237.5 256,237.5 "/>
<polygon class="st1" points="484.3,237.5 484.3,263.6 339.2,263.6 349.5,237.5 "/>
<rect x="121.5" y="279.5" class="st1" width="75" height="26.2"/>
<polygon class="st1" points="282.8,305.7 212.6,305.7 202.6,279.5 272.6,279.5 "/>
<polygon class="st1" points="403.2,279.5 393.2,305.7 322.6,305.7 332.9,279.5 "/>
<rect x="409.2" y="279.5" class="st1" width="75" height="26.2"/>
<rect x="121.5" y="321.5" class="st1" width="75" height="26.2"/>
<polygon class="st1" points="299.3,347.7 228.7,347.7 218.7,321.5 289.1,321.5 "/>
<polygon class="st1" points="387.1,321.5 377.1,347.7 306,347.7 316.3,321.5 "/>
<rect x="409.2" y="321.5" class="st1" width="75" height="26.2"/>
<rect x="121.5" y="363.5" class="st1" width="75" height="26.2"/>
<polygon class="st1" points="371,363.5 361,389.7 244.8,389.7 234.8,363.5 "/>
<rect x="409.2" y="363.5" class="st1" width="75" height="26.2"/>
<rect x="121.5" y="405.5" class="st1" width="75" height="26.2"/>
<polygon class="st1" points="354.9,405.5 344.9,431.7 260.9,431.7 250.9,405.5 "/>
<rect x="409.2" y="405.5" class="st1" width="75" height="26.2"/>
<rect x="121.5" y="447.5" class="st1" width="75" height="26.2"/>
<rect x="409.2" y="447.5" class="st1" width="75" height="26.2"/>
</svg>
