<?xml version="1.0" encoding="iso-8859-1"?>
<!-- Generator: Adobe Illustrator 19.0.0, SVG Export Plug-In . SVG Version: 6.00 Build 0)  -->
<svg version="1.1" id="Capa_1" xmlns="http://www.w3.org/2000/svg" xmlns:xlink="http://www.w3.org/1999/xlink" x="0px" y="0px"
	 viewBox="0 0 221.441 221.441" style="enable-background:new 0 0 221.441 221.441;" xml:space="preserve">
<path d="M165.221,121.654c-2.272,0-4.501,0.181-6.679,0.523l-29.051-64.215c9.994-0.798,26.711-3.259,34.301-10.848
	c10.563-10.564,11.191-38.812,11.229-41.998L175.079,0l-5.116,0.059c-3.187,0.037-31.435,0.665-41.998,11.229
	c-3.517,3.516-5.927,8.995-7.587,14.854c-1.659-5.859-4.07-11.338-7.586-14.854C102.229,0.724,73.98,0.096,70.794,0.059L65.678,0
	l0.059,5.116c0.037,3.187,0.665,31.434,11.229,41.999c7.397,7.396,23.456,9.919,33.518,10.781l-45.631,78.631
	c-2.789-0.572-5.676-0.873-8.631-0.873c-23.651,0-42.894,19.242-42.894,42.894s19.242,42.894,42.894,42.894
	s42.894-19.242,42.894-42.894c0-13.522-6.296-25.595-16.104-33.463l35.932-61.919l21.115,46.676
	c-10.734,7.804-17.731,20.45-17.731,34.706c0,23.651,19.242,42.894,42.894,42.894s42.894-19.242,42.894-42.894
	S188.872,121.654,165.221,121.654z"/>
<g>
</g>
<g>
</g>
<g>
</g>
<g>
</g>
<g>
</g>
<g>
</g>
<g>
</g>
<g>
</g>
<g>
</g>
<g>
</g>
<g>
</g>
<g>
</g>
<g>
</g>
<g>
</g>
<g>
</g>
</svg>
