<?xml version="1.0" encoding="iso-8859-1"?>
<!-- Generator: Adobe Illustrator 19.0.0, SVG Export Plug-In . SVG Version: 6.00 Build 0)  -->
<svg xmlns="http://www.w3.org/2000/svg" xmlns:xlink="http://www.w3.org/1999/xlink" version="1.1" id="Capa_1" x="0px" y="0px" viewBox="0 0 222.923 222.923" style="enable-background:new 0 0 222.923 222.923;" xml:space="preserve" width="512px" height="512px">
<g>
	<path d="M141.967,29.675c-7.299,0-13.5,5.938-13.5,13.236v5.833c-7,7.07-23.773,19.15-51.799,27.791   c-19.305,5.952-52.925,9.344-59.058,9.924c-0.305-0.431-0.548-0.845-0.926-1.228c-1.81-1.834-4.18-2.853-6.818-2.869   c-5.283,0-9.587,4.298-9.621,9.582L0,131.531c-0.017,2.576,0.976,5.117,2.786,6.95c1.811,1.834,4.231,2.981,6.807,2.981h0.062   c2.645,0,5.049-1.189,6.795-2.927c0.518,4.872,2.079,9.561,4.659,13.898c4.704,7.907,12.207,13.482,21.125,15.746   c2.784,0.708,5.643,1.052,8.497,1.052c14.011,0,26.043-8.448,31.353-21.062c24.733,8.475,39.382,19.426,46.382,26.019v5.824   c0,7.299,6.201,13.236,13.5,13.236s13.5-5.938,13.5-13.236v-137.1C155.467,35.613,149.265,29.675,141.967,29.675z M9.655,138.3   L9.655,138.3v0.002V138.3z M50.731,148.679c-1.15,0-2.309-0.146-3.442-0.434c-3.601-0.915-6.63-3.178-8.529-6.37   c-0.6-1.008-1.048-2.075-1.374-3.17c7.661,1.016,16.486,2.36,24.728,4.021C59.571,146.372,55.374,148.679,50.731,148.679z" fill="#FFFFFF"/>
	<path d="M212.261,76.302c-3.22-4.67-9.615-5.844-14.282-2.626c-4.669,3.219-5.845,9.613-2.626,14.282   c4.601,6.674,7.032,14.76,7.032,23.383c0,8.592-2.542,16.963-7.158,23.57c-3.248,4.649-2.112,11.051,2.537,14.299   c1.791,1.251,3.842,1.852,5.872,1.852c3.24,0,6.43-1.53,8.427-4.389c7.104-10.169,10.859-22.387,10.859-35.332   C222.923,98.535,219.236,86.419,212.261,76.302z" fill="#FFFFFF"/>
	<path d="M186.17,87.618c-3.219-4.67-9.614-5.844-14.282-2.626c-4.669,3.219-5.845,9.613-2.626,14.282   c2.334,3.386,3.619,7.688,3.619,12.113c0,4.474-1.308,8.81-3.683,12.208c-3.249,4.648-2.113,11.051,2.535,14.299   c1.791,1.252,3.842,1.853,5.873,1.853c3.24,0,6.429-1.53,8.426-4.388c4.832-6.914,7.386-15.203,7.386-23.972   C193.418,102.715,190.912,94.495,186.17,87.618z" fill="#FFFFFF"/>
</g>
<g>
</g>
<g>
</g>
<g>
</g>
<g>
</g>
<g>
</g>
<g>
</g>
<g>
</g>
<g>
</g>
<g>
</g>
<g>
</g>
<g>
</g>
<g>
</g>
<g>
</g>
<g>
</g>
<g>
</g>
</svg>
