<?xml version="1.0" encoding="UTF-8"?>
<svg width="10px" height="22px" viewBox="0 0 10 22" version="1.1" xmlns="http://www.w3.org/2000/svg" xmlns:xlink="http://www.w3.org/1999/xlink">
    <!-- Generator: sketchtool 40.1 (33804) - http://www.bohemiancoding.com/sketch -->
    <title>D122CBFF-84CF-4A97-A68B-DC59EEC2D1F4</title>
    <desc>Created with sketchtool.</desc>
    <defs></defs>
    <g id="Page-1" stroke="none" stroke-width="1" fill="none" fill-rule="evenodd">
        <g id="tablet-+info" transform="translate(-245.000000, -6172.000000)" fill="#FFFFFF">
            <g id="Page-1" transform="translate(251.296466, 6183.358095) scale(-1, 1) rotate(140.000000) translate(-251.296466, -6183.358095) translate(242.796466, 6174.358095)">
                <path d="M5.35371862,5.941131 C8.77506293,4.99627588 12.1974106,4.05042196 15.6187549,3.10556684 C15.3097302,2.5332603 15.0007056,1.96195255 14.6916809,1.3906448 C9.27973629,5.24697211 4.18082962,10.046157 0.456480628,15.5774547 C-0.25387473,16.6341743 1.28623187,17.8816627 1.99157059,16.8339323 C5.62562018,11.4364723 10.5740278,6.74515677 15.8485167,2.98671085 C16.8137171,2.29954349 15.9759392,0.980142203 14.9224461,1.27079003 L4.65740984,4.10735298 C3.41228131,4.45093666 4.12464332,6.28071952 5.35371862,5.941131" id="Fill-1"></path>
                <path d="M11.77574,10.2757194 C13.0680594,7.58148342 14.3603787,4.88724742 15.6537634,2.19399651 C16.2067014,1.04143486 14.274082,0.235626796 13.7286018,1.37144183 C12.4362825,4.06469273 11.1439631,6.75892874 9.8505784,9.45316474 C9.29764045,10.6057264 11.2313252,11.4115345 11.77574,10.2757194" id="Fill-4"></path>
            </g>
        </g>
    </g>
</svg>