<?xml version="1.0" encoding="UTF-8"?>
<svg width="21px" height="11px" viewBox="0 0 21 11" version="1.1" xmlns="http://www.w3.org/2000/svg" xmlns:xlink="http://www.w3.org/1999/xlink">
    <!-- Generator: sketchtool 40.1 (33804) - http://www.bohemiancoding.com/sketch -->
    <title>681F5C20-8425-49D6-84D5-8B82D52816FD</title>
    <desc>Created with sketchtool.</desc>
    <defs>
        <polygon id="path-1" points="15.2071068 14.7928932 15.2071068 -0.207106781 0.207106781 -0.207106781 0.207106781 14.7928932 15.2071068 14.7928932"></polygon>
    </defs>
    <g id="Page-1" stroke="none" stroke-width="1" fill="none" fill-rule="evenodd">
        <g id="desktop-+info" transform="translate(-1178.000000, -5908.000000)">
            <g id="Page-1" transform="translate(1188.960155, 5914.960155) scale(-1, 1) rotate(45.000000) translate(-1188.960155, -5914.960155) translate(1181.460155, 5906.960155)">
                <mask id="mask-2" fill="white">
                    <use xlink:href="#path-1"></use>
                </mask>
                <g id="Clip-2"></g>
                <path d="M15.2059409,0.634296515 C15.2076138,0.605174177 15.2076138,0.578548039 15.2051044,0.550257768 C15.2000858,0.499501693 15.1875391,0.452073885 15.1716467,0.402981944 C15.0394887,-0.0521585967 14.4924548,-0.320916174 14.0558315,-0.160327281 C10.8079225,0.736640731 7.56001358,1.63360874 4.31126819,2.52974469 C3.27407862,2.81597567 3.86795329,4.34115412 4.89259622,4.0582514 C6.7762663,3.53820965 8.65909995,3.0181679 10.54277,2.49812615 C6.67422023,5.6549876 3.11933663,9.32107392 0.35991051,13.4173388 C-0.233127719,14.2968334 1.05081259,15.3360848 1.63883216,14.4632468 C4.512851,10.1980723 8.25509788,6.40384772 12.3160296,3.1862454 C11.5933427,4.80711153 10.8698193,6.42797766 10.1471324,8.04884378 C9.71301838,9.02236194 11.2303263,9.70299259 11.6585853,8.74361956 C12.818732,6.14257874 13.9780423,3.54236999 15.138189,0.941329165 C15.1432076,0.930512296 15.1406983,0.920527494 15.1448805,0.909710626 C15.1850298,0.819015345 15.2059409,0.727487996 15.2059409,0.634296515" id="Fill-1" fill="#FFFFFF" mask="url(#mask-2)"></path>
            </g>
        </g>
    </g>
</svg>