<?xml version="1.0" encoding="UTF-8" standalone="no"?>
<svg width="88px" height="102px" viewBox="0 0 88 102" version="1.1" xmlns="http://www.w3.org/2000/svg" xmlns:xlink="http://www.w3.org/1999/xlink">
    <!-- Generator: sketchtool 39.1 (31720) - http://www.bohemiancoding.com/sketch -->
    <title>8FC73268-2632-4582-91AF-8B0A00B70E4E</title>
    <desc>Created with sketchtool.</desc>
    <defs></defs>
    <g id="Page-1" stroke="none" stroke-width="1" fill="none" fill-rule="evenodd">
        <g id="desktop-+info" transform="translate(-1239.000000, -780.000000)" fill="#D5D5D5">
            <g id="how_to_right" transform="translate(1239.000000, 780.000000)">
                <g id="Group-4" transform="translate(16.000000, 2.000000) rotate(90.000000) translate(-16.000000, -2.000000) translate(14.000000, -14.000000)">
                    <circle id="Oval-3" cx="2" cy="2" r="2"></circle>
                    <circle id="Oval-3" cx="2" cy="16" r="2"></circle>
                    <circle id="Oval-3" cx="2" cy="30" r="2"></circle>
                </g>
                <g id="Group-4" transform="translate(58.000000, 2.000000) rotate(90.000000) translate(-58.000000, -2.000000) translate(56.000000, -14.000000)">
                    <circle id="Oval-3" cx="2" cy="2" r="2"></circle>
                    <circle id="Oval-3" cx="2" cy="16" r="2"></circle>
                    <circle id="Oval-3" cx="2" cy="30" r="2"></circle>
                </g>
                <g id="Group-4" transform="translate(86.000000, 2.000000) rotate(90.000000) translate(-86.000000, -2.000000) translate(84.000000, 0.000000)">
                    <circle id="Oval-3" cx="2" cy="2" r="2"></circle>
                </g>
                <g id="Group-4" transform="translate(84.000000, 56.000000)">
                    <circle id="Oval-3" cx="2" cy="2" r="2"></circle>
                    <circle id="Oval-3" cx="2" cy="16" r="2"></circle>
                    <circle id="Oval-3" cx="2" cy="30" r="2"></circle>
                    <circle id="Oval-3" cx="2" cy="44" r="2"></circle>
                </g>
                <g id="Group-4" transform="translate(84.000000, 14.000000)">
                    <circle id="Oval-3" cx="2" cy="2" r="2"></circle>
                    <circle id="Oval-3" cx="2" cy="16" r="2"></circle>
                    <circle id="Oval-3" cx="2" cy="30" r="2"></circle>
                </g>
            </g>
        </g>
    </g>
</svg>