<?xml version="1.0" encoding="UTF-8"?>
<svg width="41px" height="32px" viewBox="0 0 41 32" version="1.1" xmlns="http://www.w3.org/2000/svg" xmlns:xlink="http://www.w3.org/1999/xlink">
    <!-- Generator: sketchtool 40.1 (33804) - http://www.bohemiancoding.com/sketch -->
    <title>A9B5FAC8-0DF3-438A-90C2-C66C540AEA58</title>
    <desc>Created with sketchtool.</desc>
    <defs>
        <polygon id="path-1" points="0 32 40.608 32 40.608 0 0 0"></polygon>
    </defs>
    <g id="Page-1" stroke="none" stroke-width="1" fill="none" fill-rule="evenodd">
        <g id="desktop-+info" transform="translate(-889.000000, -5692.000000)">
            <g id="Page-1" transform="translate(889.000000, 5692.000000)">
                <mask id="mask-2" fill="white">
                    <use xlink:href="#path-1"></use>
                </mask>
                <g id="Clip-2"></g>
                <path d="M38.2094,26.6714 C37.1864,30.6394 33.9154,29.8124 30.7134,29.8124 L15.3674,29.8124 C12.3914,29.8124 7.8764,30.6884 4.9964,29.8124 C1.1304,28.6364 2.4394,22.6374 2.4394,19.7244 C2.4394,16.4984 2.0984,12.9954 2.1614,9.6354 C5.3364,12.4124 9.1934,14.3484 12.5254,16.9304 C14.8494,18.7324 17.2414,20.9934 20.4094,20.9494 C23.6954,20.9034 26.0714,18.4554 28.5054,16.6224 C31.7344,14.1904 35.3744,12.2954 38.4354,9.6564 C38.3474,11.0984 38.2094,12.4844 38.2094,13.6004 C38.2094,17.5144 39.1884,22.8744 38.2094,26.6714 M8.8614,2.0934 L25.2814,2.0934 C28.5494,2.0934 34.5164,0.9024 37.4724,2.8034 C38.1754,3.9114 38.4344,5.3764 38.4904,6.9334 C38.4734,6.9484 38.4554,6.9594 38.4394,6.9754 C35.5254,9.9994 31.7084,11.9164 28.3194,14.3344 C25.9204,16.0464 23.4254,19.0704 20.2394,19.0044 C16.9134,18.9364 13.9874,15.4594 11.3664,13.6804 C8.2764,11.5834 4.9604,9.7304 2.3124,7.0684 C2.3494,6.6884 2.3844,6.3074 2.4394,5.9344 C3.0374,1.9274 5.5534,2.0934 8.8614,2.0934 M39.1964,1.8384 C39.1484,1.6664 39.0544,1.4994 38.8524,1.3624 C38.8384,1.3524 38.8224,1.3444 38.8074,1.3344 C38.7444,1.2854 38.6814,1.2454 38.6124,1.2164 C35.6884,-0.5876 31.5954,0.1484 28.2854,0.1484 L9.7654,0.1484 C6.6894,0.1484 2.2364,-0.6726 0.7554,2.9064 C-0.6646,6.3384 0.4554,11.9914 0.4554,15.5484 C0.4554,19.3764 -0.7496,25.3894 0.7604,29.0464 C2.2374,32.6204 6.8844,31.7574 9.9354,31.7574 L28.0184,31.7574 C30.8844,31.7574 36.4024,32.7914 38.7854,30.5904 C41.6294,27.9654 40.1934,20.6434 40.1934,17.3364 C40.1934,12.9724 41.6154,5.8244 39.1964,1.8384" id="Fill-1" fill="#FFFFFF" mask="url(#mask-2)"></path>
            </g>
        </g>
    </g>
</svg>