<?xml version="1.0" encoding="utf-8"?>
<!-- Generator: Adobe Illustrator 21.0.0, SVG Export Plug-In . SVG Version: 6.00 Build 0)  -->
<svg version="1.1" id="Layer_1" xmlns="http://www.w3.org/2000/svg" xmlns:xlink="http://www.w3.org/1999/xlink" x="0px" y="0px"
	 viewBox="0 0 84 270" style="enable-background:new 0 0 84 270;" xml:space="preserve">
<style type="text/css">
	.st0{opacity:0.31;}
	.st1{fill:#FFFFFF;}
	.st2{fill:#FF0065;}
	.st3{fill:#FFFFFF;stroke:#FFFFFF;stroke-width:6;stroke-linecap:square;}
</style>
<title>413F332E-E3F3-489D-9479-B388DAB764CA</title>
<desc>Created with sketchtool.</desc>
<g id="Page-1" class="st0">
	<g id="desktop-_x2B_info" transform="translate(-1012.000000, -2276.000000)">
		<g id="Group-11" transform="translate(1012.000000, 2276.000000)">
			<g id="Group-13">
				<ellipse id="Oval-1-Copy-25" class="st1" cx="42" cy="42.5" rx="42" ry="42.5"/>
				<g id="_x31_7050" transform="translate(19.000000, 22.000000)">
					<path id="Shape" class="st2" d="M45.7,16.1l-5.3-3.8V0.7c0-0.4-0.3-0.7-0.7-0.7h-5.2c-0.4,0-0.7,0.3-0.7,0.7v6.9L23.4,0.2
						c-0.2-0.2-0.5-0.2-0.8,0L0.3,16.1C0.1,16.2,0,16.4,0,16.6c0,0.2,0,0.4,0.1,0.5l3,4.4c0.1,0.2,0.3,0.3,0.6,0.3
						c0.1,0,0.3,0,0.4-0.1l1.3-0.9v21.6c0,0.4,0.3,0.7,0.7,0.7h11.7c0.4,0,0.7-0.3,0.7-0.7V26.2h8.9v16.1c0,0.4,0.3,0.7,0.7,0.7
						h11.6c0.4,0,0.7-0.3,0.7-0.7V20.6l1.4,1c0.3,0.2,0.7,0.1,1-0.2l3-4.4c0.1-0.2,0.1-0.3,0.1-0.5C46,16.4,45.9,16.2,45.7,16.1
						L45.7,16.1z"/>
				</g>
				<path id="Oval-1-Copy-27" class="st1" d="M42,270c23.2,0,42-19,42-42.5S65.2,185,42,185S0,204,0,227.5S18.8,270,42,270z"/>
				<g id="noun_262152-copy-2" transform="translate(26.000000, 203.000000)">
					<g id="Group">
						<path id="Shape_1_" class="st2" d="M0,7v42h9.5V37.9h8.9V49H28V7H0L0,7z M5.3,32H4.7C4.3,32,4,31.5,4,31s0.3-1,0.7-1h0.7
							C5.7,30,6,30.5,6,31S5.7,32,5.3,32L5.3,32z M5.3,27H4.7C4.3,27,4,26.5,4,26s0.3-1,0.7-1h0.7C5.7,25,6,25.5,6,26
							C6,26.5,5.7,27,5.3,27L5.3,27z M5.3,20H4.7C4.3,20,4,19.5,4,19s0.3-1,0.7-1h0.7C5.7,18,6,18.5,6,19S5.7,20,5.3,20L5.3,20z
							 M5.3,13H4.7C4.3,13,4,12.6,4,12s0.3-1,0.7-1h0.7C5.7,11,6,11.4,6,12S5.7,13,5.3,13L5.3,13z M11.3,32h-0.7
							c-0.4,0-0.7-0.5-0.7-1s0.3-1,0.7-1h0.7c0.4,0,0.7,0.5,0.7,1S11.7,32,11.3,32L11.3,32z M11.3,27h-0.7c-0.4,0-0.7-0.5-0.7-1
							s0.3-1,0.7-1h0.7c0.4,0,0.7,0.5,0.7,1C12,26.5,11.7,27,11.3,27L11.3,27z M11.3,20h-0.7c-0.4,0-0.7-0.5-0.7-1s0.3-1,0.7-1h0.7
							c0.4,0,0.7,0.5,0.7,1C12,19.5,11.7,20,11.3,20L11.3,20z M11.3,13h-0.7c-0.4,0-0.7-0.4-0.7-1s0.3-1,0.7-1h0.7
							c0.4,0,0.7,0.4,0.7,1S11.7,13,11.3,13L11.3,13z M16.3,32h-0.7c-0.4,0-0.7-0.5-0.7-1s0.3-1,0.7-1h0.7c0.4,0,0.7,0.5,0.7,1
							S16.7,32,16.3,32L16.3,32z M16.3,27h-0.7c-0.4,0-0.7-0.5-0.7-1s0.3-1,0.7-1h0.7c0.4,0,0.7,0.5,0.7,1C17,26.5,16.7,27,16.3,27
							L16.3,27z M16.3,20h-0.7c-0.4,0-0.7-0.5-0.7-1s0.3-1,0.7-1h0.7c0.4,0,0.7,0.5,0.7,1S16.7,20,16.3,20L16.3,20z M16.3,13h-0.7
							c-0.4,0-0.7-0.4-0.7-1s0.3-1,0.7-1h0.7c0.4,0,0.7,0.4,0.7,1S16.7,13,16.3,13L16.3,13z M22.3,32h-0.7c-0.4,0-0.7-0.5-0.7-1
							s0.3-1,0.7-1h0.7c0.4,0,0.7,0.5,0.7,1S22.7,32,22.3,32L22.3,32z M22.3,27h-0.7c-0.4,0-0.7-0.5-0.7-1s0.3-1,0.7-1h0.7
							c0.4,0,0.7,0.5,0.7,1C23,26.5,22.7,27,22.3,27L22.3,27z M22.3,20h-0.7c-0.4,0-0.7-0.5-0.7-1s0.3-1,0.7-1h0.7
							c0.4,0,0.7,0.5,0.7,1S22.7,20,22.3,20L22.3,20z M22.3,13h-0.7c-0.4,0-0.7-0.4-0.7-1s0.3-1,0.7-1h0.7c0.4,0,0.7,0.4,0.7,1
							S22.7,13,22.3,13L22.3,13z"/>
						<rect id="Rectangle-path" x="3" class="st2" width="22" height="5"/>
					</g>
				</g>
				<polyline id="Line" class="st3" points="49,171 49,137 49,112 				"/>
				<path id="Line-decoration-1" class="st3" d="M52,122.8L49,112l-3,10.8"/>
				<path id="Line_1_" class="st3" d="M36.5,99v60"/>
				<path id="Line-decoration-1_1_" class="st3" d="M33.5,148.2l3,10.8l3-10.8"/>
			</g>
			<g id="Group-13_1_" transform="translate(144.000000, 0.000000)">
				<ellipse id="Oval-1-Copy-25_1_" class="st1" cx="42" cy="42.5" rx="42" ry="42.5"/>
				<g id="_x31_7050_1_" transform="translate(19.000000, 22.000000)">
					<path id="Shape_2_" class="st2" d="M45.7,16.1l-5.3-3.8V0.7c0-0.4-0.3-0.7-0.7-0.7h-5.2c-0.4,0-0.7,0.3-0.7,0.7v6.9L23.4,0.2
						c-0.2-0.2-0.5-0.2-0.8,0L0.3,16.1C0.1,16.2,0,16.4,0,16.6c0,0.2,0,0.4,0.1,0.5l3,4.4c0.1,0.2,0.3,0.3,0.6,0.3
						c0.1,0,0.3,0,0.4-0.1l1.3-0.9v21.6c0,0.4,0.3,0.7,0.7,0.7h11.7c0.4,0,0.7-0.3,0.7-0.7V26.2h8.9v16.1c0,0.4,0.3,0.7,0.7,0.7
						h11.6c0.4,0,0.7-0.3,0.7-0.7V20.6l1.4,1c0.3,0.2,0.7,0.1,1-0.2l3-4.4c0.1-0.2,0.1-0.3,0.1-0.5C46,16.4,45.9,16.2,45.7,16.1
						L45.7,16.1z"/>
				</g>
				<path id="Oval-1-Copy-27_1_" class="st1" d="M42,270c23.2,0,42-19,42-42.5S65.2,185,42,185S0,204,0,227.5S18.8,270,42,270z"/>
				<g id="noun_262152-copy-2_1_" transform="translate(26.000000, 203.000000)">
					<g id="Group_1_">
						<path id="Shape_3_" class="st2" d="M0,7v42h9.5V37.9h8.9V49H28V7H0L0,7z M5.3,32H4.7C4.3,32,4,31.5,4,31s0.3-1,0.7-1h0.7
							C5.7,30,6,30.5,6,31S5.7,32,5.3,32L5.3,32z M5.3,27H4.7C4.3,27,4,26.5,4,26s0.3-1,0.7-1h0.7C5.7,25,6,25.5,6,26
							C6,26.5,5.7,27,5.3,27L5.3,27z M5.3,20H4.7C4.3,20,4,19.5,4,19s0.3-1,0.7-1h0.7C5.7,18,6,18.5,6,19S5.7,20,5.3,20L5.3,20z
							 M5.3,13H4.7C4.3,13,4,12.6,4,12s0.3-1,0.7-1h0.7C5.7,11,6,11.4,6,12S5.7,13,5.3,13L5.3,13z M11.3,32h-0.7
							c-0.4,0-0.7-0.5-0.7-1s0.3-1,0.7-1h0.7c0.4,0,0.7,0.5,0.7,1S11.7,32,11.3,32L11.3,32z M11.3,27h-0.7c-0.4,0-0.7-0.5-0.7-1
							s0.3-1,0.7-1h0.7c0.4,0,0.7,0.5,0.7,1C12,26.5,11.7,27,11.3,27L11.3,27z M11.3,20h-0.7c-0.4,0-0.7-0.5-0.7-1s0.3-1,0.7-1h0.7
							c0.4,0,0.7,0.5,0.7,1C12,19.5,11.7,20,11.3,20L11.3,20z M11.3,13h-0.7c-0.4,0-0.7-0.4-0.7-1s0.3-1,0.7-1h0.7
							c0.4,0,0.7,0.4,0.7,1S11.7,13,11.3,13L11.3,13z M16.3,32h-0.7c-0.4,0-0.7-0.5-0.7-1s0.3-1,0.7-1h0.7c0.4,0,0.7,0.5,0.7,1
							S16.7,32,16.3,32L16.3,32z M16.3,27h-0.7c-0.4,0-0.7-0.5-0.7-1s0.3-1,0.7-1h0.7c0.4,0,0.7,0.5,0.7,1C17,26.5,16.7,27,16.3,27
							L16.3,27z M16.3,20h-0.7c-0.4,0-0.7-0.5-0.7-1s0.3-1,0.7-1h0.7c0.4,0,0.7,0.5,0.7,1S16.7,20,16.3,20L16.3,20z M16.3,13h-0.7
							c-0.4,0-0.7-0.4-0.7-1s0.3-1,0.7-1h0.7c0.4,0,0.7,0.4,0.7,1S16.7,13,16.3,13L16.3,13z M22.3,32h-0.7c-0.4,0-0.7-0.5-0.7-1
							s0.3-1,0.7-1h0.7c0.4,0,0.7,0.5,0.7,1S22.7,32,22.3,32L22.3,32z M22.3,27h-0.7c-0.4,0-0.7-0.5-0.7-1s0.3-1,0.7-1h0.7
							c0.4,0,0.7,0.5,0.7,1C23,26.5,22.7,27,22.3,27L22.3,27z M22.3,20h-0.7c-0.4,0-0.7-0.5-0.7-1s0.3-1,0.7-1h0.7
							c0.4,0,0.7,0.5,0.7,1S22.7,20,22.3,20L22.3,20z M22.3,13h-0.7c-0.4,0-0.7-0.4-0.7-1s0.3-1,0.7-1h0.7c0.4,0,0.7,0.4,0.7,1
							S22.7,13,22.3,13L22.3,13z"/>
						<rect id="Rectangle-path_1_" x="3" class="st2" width="22" height="5"/>
					</g>
				</g>
				<polyline id="Line_2_" class="st3" points="49,171 49,137 49,112 				"/>
				<path id="Line-decoration-1_2_" class="st3" d="M52,122.8L49,112l-3,10.8"/>
				<path id="Line_3_" class="st3" d="M36.5,99v60"/>
				<path id="Line-decoration-1_3_" class="st3" d="M33.5,148.2l3,10.8l3-10.8"/>
			</g>
		</g>
	</g>
</g>
</svg>
