<?xml version="1.0" encoding="UTF-8"?>
<svg width="228px" height="270px" viewBox="0 0 228 270" version="1.1" xmlns="http://www.w3.org/2000/svg" xmlns:xlink="http://www.w3.org/1999/xlink">
    <!-- Generator: sketchtool 40.1 (33804) - http://www.bohemiancoding.com/sketch -->
    <title>413F332E-E3F3-489D-9479-B388DAB764CA</title>
    <desc>Created with sketchtool.</desc>
    <defs></defs>
    <g id="Page-1" stroke="none" stroke-width="1" fill="none" fill-rule="evenodd" opacity="0.31">
        <g id="desktop-+info" transform="translate(-1012.000000, -2276.000000)">
            <g id="Group-11" transform="translate(1012.000000, 2276.000000)">
                <g id="Group-13">
                    <ellipse id="Oval-1-Copy-25" fill="#FFFFFF" cx="42" cy="42.5" rx="42" ry="42.5"></ellipse>
                    <g id="17050" transform="translate(19.000000, 22.000000)" fill="#FF0065">
                        <path d="M45.7133988,16.1058498 L40.3980731,12.3184428 L40.3980731,0.695732232 C40.3980731,0.312025365 40.0903316,0 39.7103698,0 L34.4626645,0 C34.0845427,0 33.7795612,0.312025365 33.7795612,0.695732232 L33.7795612,7.60105033 L23.3876511,0.194898726 C23.15765,0.0257678605 22.8384084,0.0257678605 22.6088673,0.194898726 L0.290479642,16.1058498 C0.142358928,16.2131378 0.038398426,16.3691505 0.00987828843,16.5579586 C-0.0200218558,16.7369281 0.0181583284,16.9252678 0.121658828,17.0780009 L3.16043349,21.4932067 C3.29613414,21.6881054 3.50819516,21.7925823 3.72531621,21.7925823 C3.85779685,21.7925823 3.99671752,21.7565073 4.11815811,21.6656171 L5.45078454,20.7164228 L5.45078454,42.3009882 C5.45078454,42.6846951 5.76082603,43 6.13894786,43 L17.8717645,43 C18.2498863,43 18.5562478,42.6846951 18.5562478,42.3009882 L18.5562478,26.1946699 L27.4411906,26.1946699 L27.4411906,42.3009882 C27.4411906,42.6846951 27.7512321,43 28.1293539,43 L39.7729301,43 C40.1510519,43 40.4541934,42.6846951 40.4541934,42.3009882 L40.4541934,20.6480208 L41.8838803,21.6656171 C42.1971418,21.8900317 42.6244839,21.8150707 42.8383849,21.4936752 L45.8757796,17.0784694 C45.9811201,16.9257363 46.0211403,16.7369281 45.9894001,16.5584271 C45.96088,16.369619 45.8569195,16.2136063 45.7133988,16.1058498 L45.7133988,16.1058498 Z" id="Shape"></path>
                    </g>
                    <path d="M42,270 C65.1959595,270 84,250.972102 84,227.5 C84,204.027898 65.1959595,185 42,185 C18.8040405,185 0,204.027898 0,227.5 C0,250.972102 18.8040405,270 42,270 Z" id="Oval-1-Copy-27" fill="#FFFFFF"></path>
                    <g id="noun_262152-copy-2" transform="translate(26.000000, 203.000000)" fill="#FF0065">
                        <g id="Group">
                            <path d="M0,7 L0,49 L9.52537723,49 L9.52537723,37.9129239 L18.4746228,37.9129239 L18.4746228,49 L28,49 L28,7 L0,7 L0,7 Z M5.33333333,32 L4.66666667,32 C4.3,32 4,31.55 4,31 C4,30.45 4.3,30 4.66666667,30 L5.33333333,30 C5.7,30 6,30.45 6,31 C6,31.55 5.7,32 5.33333333,32 L5.33333333,32 Z M5.33333333,27 L4.66666667,27 C4.3,27 4,26.55 4,26 C4,25.45 4.3,25 4.66666667,25 L5.33333333,25 C5.7,25 6,25.45 6,26 C6,26.5 5.7,27 5.33333333,27 L5.33333333,27 Z M5.33333333,20 L4.66666667,20 C4.3,20 4,19.55 4,19 C4,18.45 4.3,18 4.66666667,18 L5.33333333,18 C5.7,18 6,18.45 6,19 C6,19.55 5.7,20 5.33333333,20 L5.33333333,20 Z M5.33333333,13 L4.66666667,13 C4.3,13 4,12.55 4,12 C4,11.45 4.3,11 4.66666667,11 L5.33333333,11 C5.7,11 6,11.45 6,12 C6,12.55 5.7,13 5.33333333,13 L5.33333333,13 Z M11.3333333,32 L10.6666667,32 C10.3,32 10,31.55 10,31 C10,30.45 10.3,30 10.6666667,30 L11.3333333,30 C11.7,30 12,30.45 12,31 C12,31.55 11.7333333,32 11.3333333,32 L11.3333333,32 Z M11.3316488,27 L10.6658244,27 C10.299621,27 10,26.55 10,26 C10,25.45 10.299621,25 10.6658244,25 L11.3316488,25 C11.6978523,25 11.9974732,25.45 11.9974732,26 C12.0307645,26.5 11.7311435,27 11.3316488,27 L11.3316488,27 Z M11.3316488,20 L10.6658244,20 C10.299621,20 10,19.55 10,19 C10,18.45 10.299621,18 10.6658244,18 L11.3316488,18 C11.6978523,18 11.9974732,18.45 11.9974732,19 C12.0307645,19.55 11.7311435,20 11.3316488,20 L11.3316488,20 Z M11.3333333,13 L10.6666667,13 C10.3,13 10,12.55 10,12 C10,11.45 10.3,11 10.6666667,11 L11.3333333,11 C11.7,11 12,11.45 12,12 C12,12.55 11.7333333,13 11.3333333,13 L11.3333333,13 Z M16.3333333,32 L15.6666667,32 C15.3,32 15,31.55 15,31 C15,30.45 15.3,30 15.6666667,30 L16.3333333,30 C16.7,30 17,30.45 17,31 C17,31.55 16.7,32 16.3333333,32 L16.3333333,32 Z M16.3333333,27 L15.6666667,27 C15.3,27 15,26.55 15,26 C15,25.45 15.3,25 15.6666667,25 L16.3333333,25 C16.7,25 17,25.45 17,26 C17,26.5 16.7,27 16.3333333,27 L16.3333333,27 Z M16.3333333,20 L15.6666667,20 C15.3,20 15,19.55 15,19 C15,18.45 15.3,18 15.6666667,18 L16.3333333,18 C16.7,18 17,18.45 17,19 C17,19.55 16.7,20 16.3333333,20 L16.3333333,20 Z M16.3333333,13 L15.6666667,13 C15.3,13 15,12.55 15,12 C15,11.45 15.3,11 15.6666667,11 L16.3333333,11 C16.7,11 17,11.45 17,12 C17,12.55 16.7,13 16.3333333,13 L16.3333333,13 Z M22.3333333,32 L21.6666667,32 C21.3,32 21,31.55 21,31 C21,30.45 21.3,30 21.6666667,30 L22.3333333,30 C22.7,30 23,30.45 23,31 C23,31.55 22.7,32 22.3333333,32 L22.3333333,32 Z M22.3333333,27 L21.6666667,27 C21.3,27 21,26.55 21,26 C21,25.45 21.3,25 21.6666667,25 L22.3333333,25 C22.7,25 23,25.45 23,26 C23,26.5 22.7,27 22.3333333,27 L22.3333333,27 Z M22.3333333,20 L21.6666667,20 C21.3,20 21,19.55 21,19 C21,18.45 21.3,18 21.6666667,18 L22.3333333,18 C22.7,18 23,18.45 23,19 C23,19.55 22.7,20 22.3333333,20 L22.3333333,20 Z M22.3333333,13 L21.6666667,13 C21.3,13 21,12.55 21,12 C21,11.45 21.3,11 21.6666667,11 L22.3333333,11 C22.7,11 23,11.45 23,12 C23,12.55 22.7,13 22.3333333,13 L22.3333333,13 Z" id="Shape"></path>
                            <rect id="Rectangle-path" x="3" y="0" width="22" height="5"></rect>
                        </g>
                    </g>
                    <polyline id="Line" stroke="#FFFFFF" stroke-width="6" stroke-linecap="square" fill="#FFFFFF" points="49 171 49 137.037281 49 112"></polyline>
                    <path id="Line-decoration-1" d="M52,122.8 L49,112 L46,122.8" stroke="#FFFFFF" stroke-width="6" stroke-linecap="square" fill="#FFFFFF"></path>
                    <path d="M36.5,99 L36.5,159" id="Line" stroke="#FFFFFF" stroke-width="6" stroke-linecap="square" fill="#FFFFFF"></path>
                    <path id="Line-decoration-1" d="M33.5,148.2 L36.5,159 L39.5,148.2" stroke="#FFFFFF" stroke-width="6" stroke-linecap="square" fill="#FFFFFF"></path>
                </g>
                <g id="Group-13" transform="translate(144.000000, 0.000000)">
                    <ellipse id="Oval-1-Copy-25" fill="#FFFFFF" cx="42" cy="42.5" rx="42" ry="42.5"></ellipse>
                    <g id="17050" transform="translate(19.000000, 22.000000)" fill="#FF0065">
                        <path d="M45.7133988,16.1058498 L40.3980731,12.3184428 L40.3980731,0.695732232 C40.3980731,0.312025365 40.0903316,0 39.7103698,0 L34.4626645,0 C34.0845427,0 33.7795612,0.312025365 33.7795612,0.695732232 L33.7795612,7.60105033 L23.3876511,0.194898726 C23.15765,0.0257678605 22.8384084,0.0257678605 22.6088673,0.194898726 L0.290479642,16.1058498 C0.142358928,16.2131378 0.038398426,16.3691505 0.00987828843,16.5579586 C-0.0200218558,16.7369281 0.0181583284,16.9252678 0.121658828,17.0780009 L3.16043349,21.4932067 C3.29613414,21.6881054 3.50819516,21.7925823 3.72531621,21.7925823 C3.85779685,21.7925823 3.99671752,21.7565073 4.11815811,21.6656171 L5.45078454,20.7164228 L5.45078454,42.3009882 C5.45078454,42.6846951 5.76082603,43 6.13894786,43 L17.8717645,43 C18.2498863,43 18.5562478,42.6846951 18.5562478,42.3009882 L18.5562478,26.1946699 L27.4411906,26.1946699 L27.4411906,42.3009882 C27.4411906,42.6846951 27.7512321,43 28.1293539,43 L39.7729301,43 C40.1510519,43 40.4541934,42.6846951 40.4541934,42.3009882 L40.4541934,20.6480208 L41.8838803,21.6656171 C42.1971418,21.8900317 42.6244839,21.8150707 42.8383849,21.4936752 L45.8757796,17.0784694 C45.9811201,16.9257363 46.0211403,16.7369281 45.9894001,16.5584271 C45.96088,16.369619 45.8569195,16.2136063 45.7133988,16.1058498 L45.7133988,16.1058498 Z" id="Shape"></path>
                    </g>
                    <path d="M42,270 C65.1959595,270 84,250.972102 84,227.5 C84,204.027898 65.1959595,185 42,185 C18.8040405,185 0,204.027898 0,227.5 C0,250.972102 18.8040405,270 42,270 Z" id="Oval-1-Copy-27" fill="#FFFFFF"></path>
                    <g id="noun_262152-copy-2" transform="translate(26.000000, 203.000000)" fill="#FF0065">
                        <g id="Group">
                            <path d="M0,7 L0,49 L9.52537723,49 L9.52537723,37.9129239 L18.4746228,37.9129239 L18.4746228,49 L28,49 L28,7 L0,7 L0,7 Z M5.33333333,32 L4.66666667,32 C4.3,32 4,31.55 4,31 C4,30.45 4.3,30 4.66666667,30 L5.33333333,30 C5.7,30 6,30.45 6,31 C6,31.55 5.7,32 5.33333333,32 L5.33333333,32 Z M5.33333333,27 L4.66666667,27 C4.3,27 4,26.55 4,26 C4,25.45 4.3,25 4.66666667,25 L5.33333333,25 C5.7,25 6,25.45 6,26 C6,26.5 5.7,27 5.33333333,27 L5.33333333,27 Z M5.33333333,20 L4.66666667,20 C4.3,20 4,19.55 4,19 C4,18.45 4.3,18 4.66666667,18 L5.33333333,18 C5.7,18 6,18.45 6,19 C6,19.55 5.7,20 5.33333333,20 L5.33333333,20 Z M5.33333333,13 L4.66666667,13 C4.3,13 4,12.55 4,12 C4,11.45 4.3,11 4.66666667,11 L5.33333333,11 C5.7,11 6,11.45 6,12 C6,12.55 5.7,13 5.33333333,13 L5.33333333,13 Z M11.3333333,32 L10.6666667,32 C10.3,32 10,31.55 10,31 C10,30.45 10.3,30 10.6666667,30 L11.3333333,30 C11.7,30 12,30.45 12,31 C12,31.55 11.7333333,32 11.3333333,32 L11.3333333,32 Z M11.3316488,27 L10.6658244,27 C10.299621,27 10,26.55 10,26 C10,25.45 10.299621,25 10.6658244,25 L11.3316488,25 C11.6978523,25 11.9974732,25.45 11.9974732,26 C12.0307645,26.5 11.7311435,27 11.3316488,27 L11.3316488,27 Z M11.3316488,20 L10.6658244,20 C10.299621,20 10,19.55 10,19 C10,18.45 10.299621,18 10.6658244,18 L11.3316488,18 C11.6978523,18 11.9974732,18.45 11.9974732,19 C12.0307645,19.55 11.7311435,20 11.3316488,20 L11.3316488,20 Z M11.3333333,13 L10.6666667,13 C10.3,13 10,12.55 10,12 C10,11.45 10.3,11 10.6666667,11 L11.3333333,11 C11.7,11 12,11.45 12,12 C12,12.55 11.7333333,13 11.3333333,13 L11.3333333,13 Z M16.3333333,32 L15.6666667,32 C15.3,32 15,31.55 15,31 C15,30.45 15.3,30 15.6666667,30 L16.3333333,30 C16.7,30 17,30.45 17,31 C17,31.55 16.7,32 16.3333333,32 L16.3333333,32 Z M16.3333333,27 L15.6666667,27 C15.3,27 15,26.55 15,26 C15,25.45 15.3,25 15.6666667,25 L16.3333333,25 C16.7,25 17,25.45 17,26 C17,26.5 16.7,27 16.3333333,27 L16.3333333,27 Z M16.3333333,20 L15.6666667,20 C15.3,20 15,19.55 15,19 C15,18.45 15.3,18 15.6666667,18 L16.3333333,18 C16.7,18 17,18.45 17,19 C17,19.55 16.7,20 16.3333333,20 L16.3333333,20 Z M16.3333333,13 L15.6666667,13 C15.3,13 15,12.55 15,12 C15,11.45 15.3,11 15.6666667,11 L16.3333333,11 C16.7,11 17,11.45 17,12 C17,12.55 16.7,13 16.3333333,13 L16.3333333,13 Z M22.3333333,32 L21.6666667,32 C21.3,32 21,31.55 21,31 C21,30.45 21.3,30 21.6666667,30 L22.3333333,30 C22.7,30 23,30.45 23,31 C23,31.55 22.7,32 22.3333333,32 L22.3333333,32 Z M22.3333333,27 L21.6666667,27 C21.3,27 21,26.55 21,26 C21,25.45 21.3,25 21.6666667,25 L22.3333333,25 C22.7,25 23,25.45 23,26 C23,26.5 22.7,27 22.3333333,27 L22.3333333,27 Z M22.3333333,20 L21.6666667,20 C21.3,20 21,19.55 21,19 C21,18.45 21.3,18 21.6666667,18 L22.3333333,18 C22.7,18 23,18.45 23,19 C23,19.55 22.7,20 22.3333333,20 L22.3333333,20 Z M22.3333333,13 L21.6666667,13 C21.3,13 21,12.55 21,12 C21,11.45 21.3,11 21.6666667,11 L22.3333333,11 C22.7,11 23,11.45 23,12 C23,12.55 22.7,13 22.3333333,13 L22.3333333,13 Z" id="Shape"></path>
                            <rect id="Rectangle-path" x="3" y="0" width="22" height="5"></rect>
                        </g>
                    </g>
                    <polyline id="Line" stroke="#FFFFFF" stroke-width="6" stroke-linecap="square" fill="#FFFFFF" points="49 171 49 137.037281 49 112"></polyline>
                    <path id="Line-decoration-1" d="M52,122.8 L49,112 L46,122.8" stroke="#FFFFFF" stroke-width="6" stroke-linecap="square" fill="#FFFFFF"></path>
                    <path d="M36.5,99 L36.5,159" id="Line" stroke="#FFFFFF" stroke-width="6" stroke-linecap="square" fill="#FFFFFF"></path>
                    <path id="Line-decoration-1" d="M33.5,148.2 L36.5,159 L39.5,148.2" stroke="#FFFFFF" stroke-width="6" stroke-linecap="square" fill="#FFFFFF"></path>
                </g>
            </g>
        </g>
    </g>
</svg>