<?xml version="1.0" encoding="UTF-8"?>
<svg width="17px" height="40px" viewBox="0 0 17 40" version="1.1" xmlns="http://www.w3.org/2000/svg" xmlns:xlink="http://www.w3.org/1999/xlink">
    <!-- Generator: sketchtool 40.1 (33804) - http://www.bohemiancoding.com/sketch -->
    <title>07576F3A-10B1-4F45-A0AC-6606B419F231</title>
    <desc>Created with sketchtool.</desc>
    <defs>
        <polygon id="path-1" points="0.0003 39.9392 16.1248922 39.9392 16.1248922 0.0002 0.0003 0.0002 0.0003 39.9392"></polygon>
    </defs>
    <g id="Page-1" stroke="none" stroke-width="1" fill="none" fill-rule="evenodd">
        <g id="desktop-+info" transform="translate(-686.000000, -5689.000000)">
            <g id="Page-1" transform="translate(686.000000, 5689.000000)">
                <mask id="mask-2" fill="white">
                    <use xlink:href="#path-1"></use>
                </mask>
                <g id="Clip-2"></g>
                <path d="M12.4233,35.6971 C12.0323,36.3201 11.6423,36.9421 11.2513,37.5651 C5.4553,33.3161 2.2323,27.2281 1.9923,19.9421 C2.1593,14.8781 3.7823,10.0881 7.0723,6.1841 C7.4573,5.7271 11.3923,1.6781 10.7993,1.6741 C11.0853,1.6761 12.4153,4.2491 12.5093,4.3991 C12.8163,4.8881 14.1403,6.3691 14.1053,6.9421 C14.1403,6.3581 11.9643,7.9401 11.3983,8.5251 C10.7233,9.2221 9.8323,10.8871 9.1313,11.2061 C8.4003,11.5391 6.7843,11.2061 5.9553,11.2061 C5.6353,11.2061 5.2533,11.4661 5.1373,11.7651 C3.0103,17.2541 2.8173,22.7411 5.1023,28.2191 C5.2843,28.6551 5.6733,28.8521 6.1263,28.8521 C6.9753,28.8521 8.9353,28.4301 9.6543,28.8521 C9.3073,28.6481 14.0393,33.9671 13.6813,33.0591 C13.7203,33.1591 13.7543,33.2131 13.7843,33.2421 C13.7313,33.3501 13.6583,33.5431 13.5623,33.8821 C13.3853,34.5021 12.7623,35.1571 12.4233,35.6971 M15.7643,32.5041 C13.5183,30.9541 12.0443,27.8571 9.7663,26.8991 C8.9653,26.5621 7.7493,27.2251 6.9433,26.8991 C5.7633,26.4231 5.5733,23.4181 5.4223,21.6081 C5.3023,20.1651 5.1223,14.3091 6.4083,13.1591 C6.9373,12.6851 8.9383,13.3711 9.6543,13.1591 C10.0563,13.0401 10.2413,13.0261 10.6163,12.8111 C11.1713,11.9581 11.7623,11.1311 12.3903,10.3291 C13.3823,9.2491 14.4843,8.3031 15.6963,7.4891 C16.1463,7.1591 16.2283,6.5861 15.9373,6.1221 C14.7413,4.2161 13.5463,2.3101 12.3503,0.4051 C12.0633,-0.0519 11.3743,-0.1129 10.9563,0.1741 C4.1123,4.8661 0.2733,11.8201 0.0003,20.1161 C0.2673,28.2501 4.1243,35.2021 10.8893,39.7251 C11.4603,40.1071 12.0743,39.9681 12.4363,39.3901 C13.6323,37.4851 14.8273,35.5791 16.0233,33.6741 C16.2383,33.3321 16.0933,32.7311 15.7643,32.5041" id="Fill-1" fill="#FFFFFF" mask="url(#mask-2)"></path>
            </g>
        </g>
    </g>
</svg>